<svg version="1" xmlns="http://www.w3.org/2000/svg" width="1365.333" height="1365.333" viewBox="0 0 1024.000000 1024.000000"><path d="M497.2 166.6c-4.8 1.2-14.1 3.6-20.7 5.4-6.6 1.7-12.7 3.3-13.5 3.5-2.1.4-26 6.7-40.5 10.5-6.6 1.8-12.7 3.4-13.5 3.5-.8.2-8.2 2.1-16.5 4.3-8.2 2.2-25.8 6.7-39 10.1-13.2 3.5-28.8 7.5-34.6 9.1-5.8 1.6-11.7 3.1-13 3.4-1.3.3-10.9 2.8-21.4 5.6-10.4 2.7-19.9 5.2-21 5.5-1.1.2-5.6 1.4-10 2.6-4.4 1.1-9.5 2.4-11.3 2.9-4.9 1.2-13.2 5.5-17.5 9.1-7.7 6.3-14.8 18.5-16.3 27.8-.4 2.3-.7 116.3-.8 253.4l-.1 249.2-54.3.1c-29.8.1-56.2.5-58.7.8-5.6.9-11.9 5.5-14.7 10.8-2.1 4.2-2.2 5.3-2.2 31.8 0 26 .1 27.7 2.1 31.5 2.2 4.2 4.8 6.9 9.8 10 2.9 1.9 8.6 1.9 233.5 2 126.8.1 231 0 231.5-.2.7-.2 1-110.9.9-329.6-.1-310.2-.2-329.5-1.8-334.2-3.7-10.5-9.8-18.1-19.9-24.8-10.3-6.8-21.1-8.1-36.5-4.1zm-50.5 304.5c9.6 4.1 18.3 17.2 20.7 31 3 17.4-1.6 33.8-12.6 45-10.5 10.6-27.1 10.6-37.6.1-12.3-12.3-16.8-32.9-11.3-51.1 6.7-21.9 23.7-32.4 40.8-25zM599 294.6V338h130l.1 2.2c0 1.3 0 118.5.1 260.5 0 142.1.3 258.4.7 258.4 3.2.7 197.6.3 200.6-.4 7-1.5 14.2-8.8 15.4-15.7.2-1.4.4-14.2.5-28.5 0-24.8-.1-26.2-2.2-30.2-2.5-4.8-7.4-8.9-12.3-10.4-2.1-.6-25.2-1-59.5-1l-56.1-.1-.1-230.7c0-251.3.3-238.2-5.6-251.5-8.3-18.7-26.2-33.6-46.1-38.2-1.6-.4-39.6-.8-84.2-.9l-81.3-.2v43.3z"/></svg>